<?xml version="1.0" standalone="no"?>
<!DOCTYPE svg PUBLIC "-//W3C//DTD SVG 20010904//EN"
 "http://www.w3.org/TR/2001/REC-SVG-20010904/DTD/svg10.dtd">
<svg version="1.0" xmlns="http://www.w3.org/2000/svg"
 width="512.000000pt" height="512.000000pt" viewBox="0 0 512.000000 512.000000"
 preserveAspectRatio="xMidYMid meet">
<metadata>
Created by potrace 1.14, written by Peter Selinger 2001-2017
</metadata>
<g transform="translate(0.000000,512.000000) scale(0.100000,-0.100000)"
fill="#000000" stroke="none">
<path d="M4107 5084 c-2 -3 -31 -6 -63 -8 -33 -2 -80 -12 -106 -24 -26 -12
-50 -22 -54 -22 -4 0 -14 -7 -23 -15 -49 -45 -61 -55 -65 -55 -8 0 -540 -536
-538 -542 1 -5 -2 -8 -6 -8 -10 0 -833 -820 -823 -820 3 0 -1 -4 -9 -10 -24
-15 -190 -183 -190 -192 0 -4 -6 -8 -12 -9 -7 0 -35 -27 -63 -59 -27 -32 -53
-59 -56 -59 -9 -1 -183 -179 -187 -191 -2 -6 -9 -11 -15 -11 -7 -1 -52 -45
-102 -99 -49 -54 -95 -98 -102 -99 -6 0 -15 -10 -18 -21 -3 -11 -10 -20 -14
-20 -10 0 -161 -151 -161 -161 0 -4 -9 -11 -21 -14 -11 -4 -18 -9 -16 -11 3
-3 -22 -31 -55 -62 -126 -120 -170 -207 -174 -342 -1 -69 3 -98 23 -154 14
-37 21 -72 16 -76 -33 -29 -154 -121 -160 -122 -5 0 -14 -9 -21 -19 -7 -11
-17 -19 -22 -19 -5 0 -20 -10 -34 -22 -13 -13 -35 -31 -48 -40 -44 -33 -153
-118 -168 -131 -8 -7 -35 -29 -60 -48 -64 -49 -69 -52 -133 -103 -31 -26 -57
-44 -57 -41 0 3 -12 -6 -28 -20 -15 -15 -67 -58 -117 -96 -49 -39 -97 -76
-106 -83 -8 -7 -41 -31 -72 -54 -79 -59 -99 -82 -86 -99 6 -7 7 -13 2 -13 -5
0 -9 -15 -8 -33 1 -17 -1 -36 -4 -42 -3 -5 -6 -19 -7 -30 -1 -22 -14 -131 -17
-155 -2 -8 -6 -20 -10 -27 -4 -6 -3 -14 3 -18 6 -4 7 -12 3 -18 -4 -7 -8 -21
-9 -32 -4 -43 -14 -131 -18 -155 -5 -30 -18 -135 -21 -170 -1 -14 -5 -44 -9
-66 -6 -38 -10 -70 -21 -178 l-4 -39 35 36 c18 21 38 37 43 37 5 0 13 9 16 20
4 11 10 18 15 15 5 -3 12 4 15 16 4 11 9 18 11 16 3 -3 37 30 77 73 40 43 75
78 78 79 3 1 39 34 80 75 l74 74 -17 44 c-39 97 -13 218 64 298 32 34 104 76
122 71 4 -1 13 2 20 7 16 12 117 7 144 -7 12 -6 22 -9 22 -5 0 4 9 -1 20 -11
11 -10 20 -15 20 -11 0 21 92 -86 111 -129 25 -59 32 -169 12 -200 -7 -11 -13
-27 -13 -37 0 -10 -4 -18 -8 -18 -5 0 -15 -12 -22 -26 -19 -34 -95 -88 -146
-102 -58 -17 -136 -15 -184 4 l-40 16 -220 -220 -221 -220 48 4 c62 5 140 13
178 19 17 2 50 7 75 9 25 3 65 8 90 11 25 3 61 8 80 10 87 10 138 16 170 21
19 3 55 7 80 9 25 2 47 4 50 5 3 1 9 2 14 1 4 -1 14 4 22 10 11 9 14 9 14 0 0
-7 4 -9 10 -6 9 5 101 18 143 19 9 0 17 4 17 8 0 4 6 6 13 3 6 -2 39 33 72 78
33 44 90 119 127 166 37 48 78 99 90 116 13 16 31 36 41 44 9 9 17 20 17 26 0
5 14 24 30 42 17 18 30 37 30 42 0 6 5 11 10 11 6 0 10 7 10 17 0 9 3 13 7 10
3 -4 13 4 22 17 18 27 160 215 176 232 5 6 19 23 30 39 11 15 28 35 38 44 9 8
17 20 17 25 0 5 11 19 26 32 14 13 21 24 17 24 -4 0 1 7 11 15 11 8 17 15 14
15 -3 0 5 12 18 28 13 15 36 42 52 61 29 35 29 35 63 19 19 -9 52 -21 73 -27
51 -13 201 -7 221 9 8 7 15 9 15 6 0 -4 26 7 58 24 33 18 92 66 141 115 46 47
85 85 87 85 6 0 71 70 65 70 -3 0 1 5 9 10 24 15 480 472 480 482 0 4 4 8 9 8
11 0 1749 1736 1782 1780 33 45 57 93 75 150 17 55 14 211 -5 234 -7 9 -11 16
-8 16 8 0 -22 70 -36 85 -7 7 -20 24 -30 37 -22 31 -524 532 -537 536 -6 2 -8
8 -4 13 3 5 -3 9 -12 9 -10 0 -15 3 -11 6 3 3 -21 30 -54 59 -64 57 -167 115
-204 115 -13 0 -35 4 -48 9 -14 6 -27 8 -30 5z"/>
</g>
</svg>
